ply
format ascii 1.0
element vertex 9
property float x
property float y
property float z
end_header
0.956619262695	0.0112829208374	-0.007190713193276
13.0865497589	-0.539961338043	0.253184318542
26.1990585327	-2.01304888725	0.51208806037
53.8790969849	-4.11936569214	1.52320325375
73.7289962769	-6.28116941452	2.9082775116
89.3453216553	-6.55771017075	4.21645832062
53.8790969849	-4.11936569214	1.52320325375
13.0865497589	-0.539961338043	0.253184318542
0.956619262695	0.0112829208374	-0.007190713193276



